<svg width="1381" height="171" viewBox="0 0 1381 171" fill="none" xmlns="http://www.w3.org/2000/svg">
<path fill-rule="evenodd" clip-rule="evenodd" d="M693.907 2.66736C702.1 -2.45948 712.898 0.0262346 718.025 8.21937L755.184 67.6023H787.791C797.456 67.6023 805.291 75.4374 805.291 85.1023C805.291 94.7673 797.456 102.602 787.791 102.602L745.49 102.602C743.809 102.602 742.548 103.077 741.011 105.38C739.127 108.202 737.61 113.052 737.61 118.902C737.61 124.753 739.127 129.603 741.011 132.425C742.548 134.727 743.809 135.202 745.49 135.202H787.791C797.456 135.202 805.291 143.037 805.291 152.702C805.291 162.367 797.456 170.202 787.791 170.202H745.49C730.252 170.202 718.823 162.227 711.9 151.855C705.323 142.002 702.61 129.952 702.61 118.902C702.61 107.853 705.323 95.8029 711.9 85.9495C714.086 82.6735 716.722 79.6367 719.786 77.0148L688.355 26.7853C683.228 18.5922 685.714 7.7942 693.907 2.66736ZM1226.64 0.035733C1235.87 -0.533811 1243.95 6.1745 1245.08 15.3507C1246.19 24.2434 1250.36 38.0631 1258.77 49.2035C1266.75 59.7619 1278.15 67.6023 1295.4 67.6023C1312.65 67.6023 1324.05 59.7619 1332.02 49.2035C1340.44 38.0631 1344.61 24.2434 1345.71 15.3507C1346.85 6.1745 1354.93 -0.533809 1364.16 0.035733C1373.39 0.605273 1380.58 8.25611 1380.58 17.5025C1380.58 41.2622 1377.07 77.2389 1366.01 107.936C1355.4 137.357 1334.46 170.202 1295.4 170.202C1264.7 170.202 1244.93 149.531 1233.11 127.04C1228.62 118.483 1231.91 107.904 1240.47 103.409C1249.02 98.9152 1259.6 102.208 1264.1 110.765C1273.05 127.801 1283.36 135.202 1295.4 135.202C1310.48 135.202 1323.38 122.982 1333.08 96.0685C1333.45 95.0464 1333.81 94.0147 1334.16 92.9746C1323.43 98.8956 1310.57 102.602 1295.4 102.602C1275.87 102.602 1260.17 96.4614 1247.92 87.3618C1245.49 90.5051 1241.98 92.8428 1237.8 93.753C1228.35 95.8064 1219.03 89.8149 1216.98 80.3706C1212.03 57.6212 1210.22 34.61 1210.22 17.5025C1210.22 8.25611 1217.41 0.605275 1226.64 0.035733ZM382.285 35.3531V152.702C382.285 162.367 374.45 170.202 364.785 170.202C355.12 170.202 347.285 162.367 347.285 152.702V17.5025C347.285 7.83752 355.12 0.00250314 364.785 0.00250314L365.484 0.00240586C379.443 -0.000478046 407.508 -0.00627232 432.432 9.63002C445.181 14.5594 458.011 22.3276 467.752 34.6733C479.417 11.666 500.22 0.00250314 525.527 0.00250314L550.908 0.00241731C555.549 0.00240205 560 1.84614 563.282 5.12803C566.564 8.40992 568.408 12.8611 568.408 17.5024V152.702C568.408 162.367 560.573 170.202 550.908 170.202C541.243 170.202 533.408 162.367 533.408 152.702V35.0025L525.527 35.0025C512.398 35.0025 504.164 40.1222 498.875 50.6862C495.388 57.6521 487.882 61.2765 480.575 60.1551C482.694 67.736 483.806 76.0489 483.806 85.1023C483.806 141.77 442.703 170.202 415.546 170.202C405.881 170.202 398.046 162.367 398.046 152.702C398.046 143.037 405.881 135.202 415.546 135.202C422.229 135.202 448.806 123.605 448.806 85.1023C448.806 71.5643 445.213 62.767 440.54 56.693C435.713 50.4197 428.685 45.7062 419.81 42.275C407.858 37.6539 394.295 35.9674 382.285 35.3531ZM14.9929 62.2686C25.5968 32.8483 46.5373 0.00233339 85.6009 0.00233339C116.298 0.00233339 136.071 20.6737 147.885 43.1639C152.38 51.7202 149.088 62.3001 140.531 66.7948C131.975 71.2895 121.395 67.997 116.901 59.4408C107.95 42.4032 97.6376 35.0023 85.6009 35.0023C70.5197 35.0023 57.6197 47.2232 47.9194 74.1363C47.5509 75.1586 47.192 76.1903 46.8424 77.2306C57.5719 71.3093 70.4321 67.6023 85.6009 67.6023C105.124 67.6023 120.823 73.7429 133.077 82.842C135.506 79.7002 139.012 77.3634 143.195 76.4527C152.639 74.3971 161.961 80.3865 164.017 89.8303C168.969 112.583 170.782 135.596 170.782 152.702C170.782 161.949 163.588 169.6 154.359 170.169C145.13 170.738 137.05 164.029 135.914 154.852C134.814 145.962 130.643 132.142 122.226 121.002C114.249 110.443 102.852 102.602 85.6009 102.602C68.3502 102.602 56.9531 110.443 48.9756 121.002C40.5586 132.142 36.388 145.962 35.2873 154.852C34.1513 164.029 26.0721 170.738 16.8429 170.169C7.61367 169.6 0.419922 161.949 0.419922 152.702C0.419922 128.943 3.92853 92.9661 14.9929 62.2686ZM221.536 17.0028C221.271 7.56882 213.541 0.00233339 204.043 0.00233339C194.378 0.00233339 186.543 7.83735 186.543 17.5023L186.543 152.702C186.543 162.367 194.378 170.202 204.043 170.202C213.708 170.202 221.543 162.367 221.543 152.702L221.543 110.452C221.543 87.8015 227.25 67.9081 235.798 54.2478C244.413 40.4805 254.388 35.0023 263.263 35.0023C273.405 35.0023 281.012 39.7025 286.779 48.3426C292.892 57.5018 296.524 70.8021 296.524 85.1022C296.524 98.3769 292.059 111.686 285.095 121.34C278.05 131.107 270.065 135.202 263.263 135.202C253.599 135.202 245.763 143.037 245.763 152.702C245.763 162.367 253.599 170.202 263.263 170.202C284.847 170.202 302.242 157.397 313.482 141.814C324.802 126.119 331.524 105.628 331.524 85.1022C331.524 65.6025 326.696 45.1028 315.89 28.912C304.736 12.2021 286.962 0.00233339 263.263 0.00233339C246.897 0.00233339 232.822 6.72668 221.536 17.0028ZM738.396 17.5023C738.396 7.8373 746.231 0.00230859 755.896 0.00233339L787.791 0.00241731C797.456 0.00244401 805.291 7.83748 805.291 17.5025C805.291 27.1674 797.456 35.0024 787.791 35.0024L755.896 35.0023C746.231 35.0023 738.396 27.1673 738.396 17.5023ZM830.092 0.00233339C839.757 0.00233339 847.592 7.83735 847.592 17.5023V135.202H855.472C868.6 135.202 876.836 130.082 882.124 119.519C885.611 112.553 893.118 108.928 900.424 110.05C898.305 102.469 897.193 94.1559 897.193 85.1023C897.193 28.4347 938.296 0.00233339 965.454 0.00233339C975.119 0.00233339 982.954 7.83735 982.954 17.5023C982.954 27.1673 975.119 35.0023 965.454 35.0023C958.771 35.0023 932.193 46.5998 932.193 85.1023C932.193 98.6403 935.786 107.438 940.46 113.512C945.287 119.785 952.315 124.499 961.19 127.93C973.142 132.551 986.705 134.237 998.714 134.852V17.5023C998.714 7.83735 1006.55 0.00233339 1016.21 0.00233339C1025.88 0.00233339 1033.71 7.83735 1033.71 17.5023V152.702C1033.71 162.367 1025.88 170.202 1016.21 170.202L1015.52 170.202C1001.56 170.205 973.493 170.211 948.569 160.575C935.819 155.645 922.988 147.877 913.248 135.531C901.582 158.539 880.779 170.202 855.472 170.202H830.092C820.427 170.202 812.592 162.367 812.592 152.702V17.5023C812.592 7.83735 820.427 0.00233339 830.092 0.00233339ZM575.708 17.5025C575.708 7.83752 583.543 0.00250314 593.208 0.00250314L635.509 0.00250314C650.748 0.00246499 662.176 7.97727 669.1 18.3496C675.676 28.2029 678.389 40.2526 678.389 51.3024C678.389 62.3522 675.676 74.4018 669.1 84.2552C666.913 87.5311 664.277 90.568 661.213 93.1899L692.644 143.419C697.771 151.612 695.286 162.41 687.092 167.537C678.899 172.664 668.101 170.178 662.975 161.985L625.816 102.602H593.208C583.543 102.602 575.708 94.7673 575.708 85.1023C575.708 75.4374 583.543 67.6023 593.208 67.6023H635.509C637.19 67.6023 638.452 67.1272 639.989 64.8245C641.872 62.0029 643.389 57.1526 643.389 51.3024C643.389 45.4522 641.872 40.6019 639.989 37.7803C638.452 35.4777 637.19 35.0025 635.509 35.0025L593.208 35.0025C583.543 35.0025 575.708 27.1675 575.708 17.5025ZM1095.9 48.8648C1088.94 58.5195 1084.48 71.8281 1084.48 85.1023C1084.48 99.4025 1088.11 112.703 1094.22 121.862C1099.99 130.502 1107.59 135.202 1117.74 135.202C1126.61 135.202 1136.59 129.724 1145.2 115.957C1153.75 102.297 1159.46 82.4033 1159.46 59.7525V17.5025C1159.46 7.83752 1167.29 0.00250314 1176.96 0.00250314C1186.62 0.00250314 1194.46 7.83752 1194.46 17.5025V152.702C1194.46 162.367 1186.62 170.202 1176.96 170.202C1167.46 170.202 1159.73 162.636 1159.46 153.202C1148.18 163.478 1134.1 170.202 1117.74 170.202C1094.04 170.202 1076.26 158.002 1065.11 141.293C1054.3 125.102 1049.48 104.602 1049.48 85.1023C1049.48 64.5767 1056.2 44.0854 1067.52 28.3902C1078.76 12.8076 1096.15 0.00250314 1117.74 0.00250314C1127.4 0.00250314 1135.24 7.83752 1135.24 17.5025C1135.24 27.1675 1127.4 35.0025 1117.74 35.0025C1110.93 35.0025 1102.95 39.0974 1095.9 48.8648ZM575.708 152.702C575.708 143.037 583.543 135.202 593.208 135.202H625.104C634.769 135.202 642.604 143.037 642.604 152.702C642.604 162.367 634.769 170.202 625.104 170.202H593.208C583.543 170.202 575.708 162.367 575.708 152.702Z" fill="white"/>
</svg>
