{
	"asset":{
		"generator":"Khronos glTF Blender I/O v4.2.57",
		"version":"2.0"
	},
	"extensionsUsed":[
		"KHR_materials_specular"
	],
	"scene":0,
	"scenes":[
		{
			"name":"Scene",
			"nodes":[
				0,
				1,
				2,
				3,
				4,
				5,
				6,
				7,
				8,
				9,
				10
			]
		}
	],
	"nodes":[
		{
			"mesh":0,
			"name":"cylinder",
			"rotation":[
				0.7071068286895752,
				0,
				0,
				0.7071068286895752
			]
		},
		{
			"mesh":1,
			"name":"cylinder.001",
			"rotation":[
				0.7071068286895752,
				0,
				0,
				0.7071068286895752
			]
		},
		{
			"mesh":2,
			"name":"cylinder.002",
			"rotation":[
				0.7071068286895752,
				0,
				0,
				0.7071068286895752
			]
		},
		{
			"mesh":3,
			"name":"cylinder.003",
			"rotation":[
				0.7071068286895752,
				0,
				0,
				0.7071068286895752
			]
		},
		{
			"mesh":4,
			"name":"cylinder.004",
			"rotation":[
				0.7071068286895752,
				0,
				0,
				0.7071068286895752
			]
		},
		{
			"mesh":5,
			"name":"cylinder.005",
			"rotation":[
				0.7071068286895752,
				0,
				0,
				0.7071068286895752
			]
		},
		{
			"mesh":6,
			"name":"cylinder.006",
			"rotation":[
				0.7071068286895752,
				0,
				0,
				0.7071068286895752
			]
		},
		{
			"mesh":7,
			"name":"cylinder.007",
			"rotation":[
				0.7071068286895752,
				0,
				0,
				0.7071068286895752
			]
		},
		{
			"mesh":8,
			"name":"pyramid",
			"rotation":[
				0.7071068286895752,
				0,
				0,
				0.7071068286895752
			]
		},
		{
			"mesh":9,
			"name":"sphere",
			"rotation":[
				0.7071068286895752,
				0,
				0,
				0.7071068286895752
			]
		},
		{
			"mesh":10,
			"name":"sphere.001",
			"rotation":[
				0.7071068286895752,
				0,
				0,
				0.7071068286895752
			]
		}
	],
	"materials":[
		{
			"doubleSided":true,
			"extensions":{
				"KHR_materials_specular":{
					"specularFactor":0
				}
			},
			"name":"m_ae5ba7f2-8b5b-56c7-c24e-203a39ddccb2",
			"pbrMetallicRoughness":{
				"baseColorTexture":{
					"index":0
				},
				"metallicFactor":0
			}
		}
	],
	"meshes":[
		{
			"name":"cylinder",
			"primitives":[
				{
					"attributes":{
						"POSITION":0,
						"NORMAL":1,
						"TEXCOORD_0":2
					},
					"indices":3,
					"material":0
				}
			]
		},
		{
			"name":"cylinder.001",
			"primitives":[
				{
					"attributes":{
						"POSITION":4,
						"NORMAL":5,
						"TEXCOORD_0":6
					},
					"indices":3,
					"material":0
				}
			]
		},
		{
			"name":"cylinder.002",
			"primitives":[
				{
					"attributes":{
						"POSITION":7,
						"NORMAL":8,
						"TEXCOORD_0":9
					},
					"indices":10,
					"material":0
				}
			]
		},
		{
			"name":"cylinder.003",
			"primitives":[
				{
					"attributes":{
						"POSITION":11,
						"NORMAL":12,
						"TEXCOORD_0":13
					},
					"indices":10,
					"material":0
				}
			]
		},
		{
			"name":"cylinder.004",
			"primitives":[
				{
					"attributes":{
						"POSITION":14,
						"NORMAL":15,
						"TEXCOORD_0":16
					},
					"indices":10,
					"material":0
				}
			]
		},
		{
			"name":"cylinder.005",
			"primitives":[
				{
					"attributes":{
						"POSITION":17,
						"NORMAL":18,
						"TEXCOORD_0":19
					},
					"indices":10,
					"material":0
				}
			]
		},
		{
			"name":"cylinder.006",
			"primitives":[
				{
					"attributes":{
						"POSITION":20,
						"NORMAL":21,
						"TEXCOORD_0":22
					},
					"indices":10,
					"material":0
				}
			]
		},
		{
			"name":"cylinder.007",
			"primitives":[
				{
					"attributes":{
						"POSITION":23,
						"NORMAL":24,
						"TEXCOORD_0":25
					},
					"indices":10,
					"material":0
				}
			]
		},
		{
			"name":"pyramid",
			"primitives":[
				{
					"attributes":{
						"POSITION":26,
						"NORMAL":27,
						"TEXCOORD_0":28
					},
					"indices":29,
					"material":0
				}
			]
		},
		{
			"name":"sphere",
			"primitives":[
				{
					"attributes":{
						"POSITION":30,
						"NORMAL":31,
						"TEXCOORD_0":32
					},
					"indices":33,
					"material":0
				}
			]
		},
		{
			"name":"sphere.001",
			"primitives":[
				{
					"attributes":{
						"POSITION":34,
						"NORMAL":35,
						"TEXCOORD_0":36
					},
					"indices":37,
					"material":0
				}
			]
		}
	],
	"textures":[
		{
			"sampler":0,
			"source":0
		}
	],
	"images":[
		{
			"mimeType":"image/png",
			"name":"carrot_farm",
			"uri":"carrot_farm.png"
		}
	],
	"accessors":[
		{
			"bufferView":0,
			"componentType":5126,
			"count":38,
			"max":[
				0.5773502588272095,
				0.5,
				0
			],
			"min":[
				-0.5773502588272095,
				-0.5,
				-0.0625
			],
			"type":"VEC3"
		},
		{
			"bufferView":1,
			"componentType":5126,
			"count":38,
			"type":"VEC3"
		},
		{
			"bufferView":2,
			"componentType":5126,
			"count":38,
			"type":"VEC2"
		},
		{
			"bufferView":3,
			"componentType":5123,
			"count":72,
			"type":"SCALAR"
		},
		{
			"bufferView":4,
			"componentType":5126,
			"count":38,
			"max":[
				0.5773502588272095,
				0.5,
				-0.78125
			],
			"min":[
				-0.5773502588272095,
				-0.5,
				-0.84375
			],
			"type":"VEC3"
		},
		{
			"bufferView":5,
			"componentType":5126,
			"count":38,
			"type":"VEC3"
		},
		{
			"bufferView":6,
			"componentType":5126,
			"count":38,
			"type":"VEC2"
		},
		{
			"bufferView":7,
			"componentType":5126,
			"count":50,
			"max":[
				0.5,
				0.0625,
				-0.046875
			],
			"min":[
				0.375,
				-0.0625,
				-0.796875
			],
			"type":"VEC3"
		},
		{
			"bufferView":8,
			"componentType":5126,
			"count":50,
			"type":"VEC3"
		},
		{
			"bufferView":9,
			"componentType":5126,
			"count":50,
			"type":"VEC2"
		},
		{
			"bufferView":10,
			"componentType":5123,
			"count":96,
			"type":"SCALAR"
		},
		{
			"bufferView":11,
			"componentType":5126,
			"count":50,
			"max":[
				-0.375,
				0.0625,
				-0.046875
			],
			"min":[
				-0.5,
				-0.0625,
				-0.796875
			],
			"type":"VEC3"
		},
		{
			"bufferView":12,
			"componentType":5126,
			"count":50,
			"type":"VEC3"
		},
		{
			"bufferView":13,
			"componentType":5126,
			"count":50,
			"type":"VEC2"
		},
		{
			"bufferView":14,
			"componentType":5126,
			"count":50,
			"max":[
				-0.15625,
				-0.3125,
				-0.046875
			],
			"min":[
				-0.28125,
				-0.4375,
				-0.796875
			],
			"type":"VEC3"
		},
		{
			"bufferView":15,
			"componentType":5126,
			"count":50,
			"type":"VEC3"
		},
		{
			"bufferView":16,
			"componentType":5126,
			"count":50,
			"type":"VEC2"
		},
		{
			"bufferView":17,
			"componentType":5126,
			"count":50,
			"max":[
				0.296875,
				-0.3125,
				-0.046875
			],
			"min":[
				0.171875,
				-0.4375,
				-0.796875
			],
			"type":"VEC3"
		},
		{
			"bufferView":18,
			"componentType":5126,
			"count":50,
			"type":"VEC3"
		},
		{
			"bufferView":19,
			"componentType":5126,
			"count":50,
			"type":"VEC2"
		},
		{
			"bufferView":20,
			"componentType":5126,
			"count":50,
			"max":[
				-0.15625,
				0.4375,
				-0.046875
			],
			"min":[
				-0.28125,
				0.3125,
				-0.796875
			],
			"type":"VEC3"
		},
		{
			"bufferView":21,
			"componentType":5126,
			"count":50,
			"type":"VEC3"
		},
		{
			"bufferView":22,
			"componentType":5126,
			"count":50,
			"type":"VEC2"
		},
		{
			"bufferView":23,
			"componentType":5126,
			"count":50,
			"max":[
				0.296875,
				0.4375,
				-0.046875
			],
			"min":[
				0.171875,
				0.3125,
				-0.796875
			],
			"type":"VEC3"
		},
		{
			"bufferView":24,
			"componentType":5126,
			"count":50,
			"type":"VEC3"
		},
		{
			"bufferView":25,
			"componentType":5126,
			"count":50,
			"type":"VEC2"
		},
		{
			"bufferView":26,
			"componentType":5126,
			"count":16,
			"max":[
				0.125,
				0.125,
				-0.21875
			],
			"min":[
				-0.125,
				-0.125,
				-0.53125
			],
			"type":"VEC3"
		},
		{
			"bufferView":27,
			"componentType":5126,
			"count":16,
			"type":"VEC3"
		},
		{
			"bufferView":28,
			"componentType":5126,
			"count":16,
			"type":"VEC2"
		},
		{
			"bufferView":29,
			"componentType":5123,
			"count":18,
			"type":"SCALAR"
		},
		{
			"bufferView":30,
			"componentType":5126,
			"count":112,
			"max":[
				0.375,
				0.375,
				0
			],
			"min":[
				-0.375,
				-0.375,
				-0.125
			],
			"type":"VEC3"
		},
		{
			"bufferView":31,
			"componentType":5126,
			"count":112,
			"type":"VEC3"
		},
		{
			"bufferView":32,
			"componentType":5126,
			"count":112,
			"type":"VEC2"
		},
		{
			"bufferView":33,
			"componentType":5123,
			"count":144,
			"type":"SCALAR"
		},
		{
			"bufferView":34,
			"componentType":5126,
			"count":264,
			"max":[
				0.3125,
				0.3125,
				0
			],
			"min":[
				-0.3125,
				-0.3125,
				-0.25
			],
			"type":"VEC3"
		},
		{
			"bufferView":35,
			"componentType":5126,
			"count":264,
			"type":"VEC3"
		},
		{
			"bufferView":36,
			"componentType":5126,
			"count":264,
			"type":"VEC2"
		},
		{
			"bufferView":37,
			"componentType":5123,
			"count":360,
			"type":"SCALAR"
		}
	],
	"bufferViews":[
		{
			"buffer":0,
			"byteLength":456,
			"byteOffset":0,
			"target":34962
		},
		{
			"buffer":0,
			"byteLength":456,
			"byteOffset":456,
			"target":34962
		},
		{
			"buffer":0,
			"byteLength":304,
			"byteOffset":912,
			"target":34962
		},
		{
			"buffer":0,
			"byteLength":144,
			"byteOffset":1216,
			"target":34963
		},
		{
			"buffer":0,
			"byteLength":456,
			"byteOffset":1360,
			"target":34962
		},
		{
			"buffer":0,
			"byteLength":456,
			"byteOffset":1816,
			"target":34962
		},
		{
			"buffer":0,
			"byteLength":304,
			"byteOffset":2272,
			"target":34962
		},
		{
			"buffer":0,
			"byteLength":600,
			"byteOffset":2576,
			"target":34962
		},
		{
			"buffer":0,
			"byteLength":600,
			"byteOffset":3176,
			"target":34962
		},
		{
			"buffer":0,
			"byteLength":400,
			"byteOffset":3776,
			"target":34962
		},
		{
			"buffer":0,
			"byteLength":192,
			"byteOffset":4176,
			"target":34963
		},
		{
			"buffer":0,
			"byteLength":600,
			"byteOffset":4368,
			"target":34962
		},
		{
			"buffer":0,
			"byteLength":600,
			"byteOffset":4968,
			"target":34962
		},
		{
			"buffer":0,
			"byteLength":400,
			"byteOffset":5568,
			"target":34962
		},
		{
			"buffer":0,
			"byteLength":600,
			"byteOffset":5968,
			"target":34962
		},
		{
			"buffer":0,
			"byteLength":600,
			"byteOffset":6568,
			"target":34962
		},
		{
			"buffer":0,
			"byteLength":400,
			"byteOffset":7168,
			"target":34962
		},
		{
			"buffer":0,
			"byteLength":600,
			"byteOffset":7568,
			"target":34962
		},
		{
			"buffer":0,
			"byteLength":600,
			"byteOffset":8168,
			"target":34962
		},
		{
			"buffer":0,
			"byteLength":400,
			"byteOffset":8768,
			"target":34962
		},
		{
			"buffer":0,
			"byteLength":600,
			"byteOffset":9168,
			"target":34962
		},
		{
			"buffer":0,
			"byteLength":600,
			"byteOffset":9768,
			"target":34962
		},
		{
			"buffer":0,
			"byteLength":400,
			"byteOffset":10368,
			"target":34962
		},
		{
			"buffer":0,
			"byteLength":600,
			"byteOffset":10768,
			"target":34962
		},
		{
			"buffer":0,
			"byteLength":600,
			"byteOffset":11368,
			"target":34962
		},
		{
			"buffer":0,
			"byteLength":400,
			"byteOffset":11968,
			"target":34962
		},
		{
			"buffer":0,
			"byteLength":192,
			"byteOffset":12368,
			"target":34962
		},
		{
			"buffer":0,
			"byteLength":192,
			"byteOffset":12560,
			"target":34962
		},
		{
			"buffer":0,
			"byteLength":128,
			"byteOffset":12752,
			"target":34962
		},
		{
			"buffer":0,
			"byteLength":36,
			"byteOffset":12880,
			"target":34963
		},
		{
			"buffer":0,
			"byteLength":1344,
			"byteOffset":12916,
			"target":34962
		},
		{
			"buffer":0,
			"byteLength":1344,
			"byteOffset":14260,
			"target":34962
		},
		{
			"buffer":0,
			"byteLength":896,
			"byteOffset":15604,
			"target":34962
		},
		{
			"buffer":0,
			"byteLength":288,
			"byteOffset":16500,
			"target":34963
		},
		{
			"buffer":0,
			"byteLength":3168,
			"byteOffset":16788,
			"target":34962
		},
		{
			"buffer":0,
			"byteLength":3168,
			"byteOffset":19956,
			"target":34962
		},
		{
			"buffer":0,
			"byteLength":2112,
			"byteOffset":23124,
			"target":34962
		},
		{
			"buffer":0,
			"byteLength":720,
			"byteOffset":25236,
			"target":34963
		}
	],
	"samplers":[
		{
			"magFilter":9729,
			"minFilter":9987
		}
	],
	"buffers":[
		{
			"byteLength":25956,
			"uri":"carrot_farm.bin"
		}
	]
}
